# xmcd
# Track frame offsets:
# 150
# 12697
# 27085
# 39313
# 54086
# 66330
# 78886
# 89779
# 104286
# 117054
# 132632
# 144457
# 154476
# 165121
# 179078
# 192206
# 201674
# 214471
# 225661
# 236827
#
# Disc length: 3320 seconds
# Revision: 0
# Processed by: cddbd v1.4PL0 Copyright (c) Steve Scherf et al.
# Submitted via: VisiTrax 2.9.5.181 - For more info visit www.synapsa.com
#
DISCID=230cf614
DTITLE=Cacka Israelsson - Cacka Israelsson - Gamle Svarten -
DYEAR=1900
DGENRE=Svensktoppen
TTITLE0=Gamle Svarten
TTITLE1=En sliten grimma
TTITLE2=Sexton ton
TTITLE3=Röda präriens vid
TTITLE4=Min gula ros i Texas
TTITLE5=När det våras ibland bergen
TTITLE6=Gone Fishing
TTITLE7=Home On The Range
TTITLE8=Tom Dooley
TTITLE9=Boken om mitt liv
TTITLE10=Tennessee Walk
TTITLE11=Sheriffens sång
TTITLE12=In The Shade Of The Old Apple Tree
TTITLE13=Väck upp hela stan
TTITLE14=Billy Boy
TTITLE15=Jambalaya
TTITLE16=Johnny Guitar
TTITLE17=Min blåaste blues
TTITLE18=Kärleksbrev i sanden
TTITLE19=Min idol
EXTD=
EXTT0=
EXTT1=
EXTT2=
EXTT3=
EXTT4=
EXTT5=
EXTT6=
EXTT7=
EXTT8=
EXTT9=
EXTT10=
EXTT11=
EXTT12=
EXTT13=
EXTT14=
EXTT15=
EXTT16=
EXTT17=
EXTT18=
EXTT19=
PLAYORDER=
